.
 
http://www.scenetime.com    -   SceneTime [ We been having it ] !!!


How come you press harder on a remote control when you know the battery is dead? so you better seed to get speed ;)

        Seed back for speed


...................................NFO:.................................................   :::'###::::'##::: ##::::'###::::'########:::'######::'##::::'##:'##:::'##:
   ::'## ##::: ###:: ##:::'## ##::: ##.... ##:'##... ##: ##:::: ##:. ##:'##::
   :'##:. ##:: ####: ##::'##:. ##:: ##:::: ##: ##:::..:: ##:::: ##::. ####:::
   '##:::. ##: ## ## ##:'##:::. ##: ########:: ##::::::: #########:::. ##::::
    #########: ##. ####: #########: ##.. ##::: ##::::::: ##.... ##:::: ##::::
    ##.... ##: ##:. ###: ##.... ##: ##::. ##:: ##::: ##: ##:::: ##:::: ##::::
    ##:::: ##: ##::. ##: ##:::: ##: ##:::. ##:. ######:: ##:::: ##:::: ##::::
   ..:::::..::..::::..::..:::::..::..:::::..:::......:::..:::::..:::::..:::::

 
 
                                                                             
  Info ...                                                                   
  Title    : Aloha, Scooby-Doo (2005) BRRip Xvid AC3-Anarchy                 
  Genre    : Animation | Comedy | Family                                     
  Language : English                                                         
  Subs     : English                                                         
  Size     : 1.21 GiB                                                        
  Source   : BluRay                                                          
  Ripper   : fasamoo                                                         
 


   links ....
 > RT       : <
 > imdb     : http://www.imdb.com/title/tt0433771/<
 > youtube  :

 
                                                                             
  Plot ...                                                                   
  Shaggy, Scooby-Doo, and the Mystery Inc. gang hit the bodacious beaches of 
  Hawaii for the Big Kahuna of Hanahuna Surfing Contest--only to discover    
  there's a terribly real monster about to show all the true meaning of      
  wipeout! The locals are convinced that island spirits are furious over a   
  new resort being built on sacred ground and when an army of tiny demons    
  attacks the surfers, the ancient properties appear to be true. Could this  
  be the first mystery that Daphne finally can't figure out before           
  trouble--in the form of a huge volcano--erupts?                            
                                                                             
 
 
 
                                                                             
  Video/Audio ...                                                            
  Video                                                                                                     
  ID                               : 0                                                                      
  Format                           : MPEG-4 Visual                                                          
  Format profile                   : Advanced Simple@L5                                                     
  Format settings, BVOP            : 2                                                                      
  Format settings, QPel            : No                                                                     
  Format settings, GMC             : No warppoints                                                          
  Format settings, Matrix          : Default (H.263)                                                        
  Muxing mode                      : Packed bitstream                                                       
  Codec ID                         : XVID                                                                   
  Codec ID/Hint                    : XviD                                                                   
  Duration                         : 1h 14mn                                                                
  Bit rate                         : 1 877 Kbps                                                             
  Width                            : 720 pixels                                                             
  Height                           : 416 pixels                                                             
  Display aspect ratio             : 16:9                                                                   
  Frame rate                       : 23.976 fps                                                             
  Color space                      : YUV                                                                    
  Chroma subsampling               : 4:2:0                                                                  
  Bit depth                        : 8 bits                                                                 
  Scan type                        : Progressive                                                            
  Compression mode                 : Lossy                                                                  
  Bits/(Pixel*Frame)               : 0.261                                                                  
  Stream size                      : 999 MiB (80%)                                                          
  Writing library                  : XviD 1.1.0 (UTC 2005-11-22)                                            
                                                                                                            
  Audio                                                                                                     
  ID                               : 1                                                                      
  Format                           : AC-3                                                                   
  Format/Info                      : Audio Coding 3                                                         
  Mode extension                   : CM (complete main)                                                     
  Codec ID                         : 2000                                                                   
  Duration                         : 1h 14mn                                                                
  Bit rate mode                    : Constant                                                               
  Bit rate                         : 448 Kbps                                                               
  Channel(s)                       : 6 channels                                                             
  Channel positions                : Front: L C R, Side: L R, LFE                                           
  Sampling rate                    : 48.0 KHz                                                               
  Bit depth                        : 16 bits                                                                
  Compression mode                 : Lossy                                                                  
  Stream size                      : 238 MiB (19%)                                                          
  Alignment                        : Split accross interleaves                                              
  Interleave, duration             : 42 ms (1.00 video frame)                                               
  Interleave, preload duration     : 500 ms                                                                 
                                                                             
 
              

                             Greets to all P2P groups